<svg width="43" height="43" viewBox="0 0 43 43" fill="none" xmlns="http://www.w3.org/2000/svg">
<rect x="0.628906" y="1.24805" width="41" height="41" rx="9.5" fill="#F9F9F9"/>
<rect x="0.628906" y="1.24805" width="41" height="41" rx="9.5" stroke="#D9D9D9"/>
<path d="M27.9629 24.3271C27.9251 24.308 27.8928 24.2797 27.869 24.2447C27.8452 24.2097 27.8307 24.1692 27.8269 24.1271L27.3269 18.6611C27.1851 17.1147 26.4706 15.6771 25.3236 14.6304C24.1765 13.5837 22.6797 13.0034 21.1269 13.0034C19.5741 13.0034 18.0773 13.5837 16.9302 14.6304C15.7832 15.6771 15.0687 17.1147 14.9269 18.6611L14.4289 24.1281C14.4253 24.1703 14.4109 24.2108 14.3871 24.2458C14.3632 24.2809 14.3308 24.3092 14.2929 24.3281C13.7063 24.6301 13.2492 25.1347 13.0065 25.7482C12.7637 26.3617 12.7518 27.0424 12.9729 27.6641C13.1514 28.2002 13.4946 28.6663 13.9536 28.996C14.4125 29.3256 14.9638 29.502 15.5289 29.5001H26.7339C27.3439 29.491 27.9334 29.2788 28.4092 28.897C28.885 28.5153 29.2199 27.9858 29.3609 27.3923C29.5019 26.7988 29.441 26.1752 29.1878 25.6202C28.9346 25.0652 28.5036 24.6095 27.9629 24.3271ZM19.1289 32.2481C18.8637 32.2481 18.6093 32.1427 18.4218 31.9552C18.2343 31.7676 18.1289 31.5133 18.1289 31.2481C18.1289 30.9828 18.2343 30.7285 18.4218 30.5409C18.6093 30.3534 18.8637 30.2481 19.1289 30.2481H23.1289C23.3941 30.2481 23.6485 30.3534 23.836 30.5409C24.0235 30.7285 24.1289 30.9828 24.1289 31.2481C24.1289 31.5133 24.0235 31.7676 23.836 31.9552C23.6485 32.1427 23.3941 32.2481 23.1289 32.2481H19.1289Z" fill="black"/>
<path d="M23.1289 31.998H19.1289C18.93 31.998 18.7392 31.919 18.5986 31.7784C18.4579 31.6377 18.3789 31.447 18.3789 31.248C18.3789 31.0491 18.4579 30.8584 18.5986 30.7177C18.7392 30.5771 18.93 30.498 19.1289 30.498H23.1289C23.3278 30.498 23.5186 30.5771 23.6592 30.7177C23.7999 30.8584 23.8789 31.0491 23.8789 31.248C23.8789 31.447 23.7999 31.6377 23.6592 31.7784C23.5186 31.919 23.3278 31.998 23.1289 31.998ZM21.1289 14.748C20.8637 14.748 20.6093 14.6427 20.4218 14.4552C20.2343 14.2676 20.1289 14.0133 20.1289 13.748V11.748C20.1289 11.4828 20.2343 11.2285 20.4218 11.0409C20.6093 10.8534 20.8637 10.748 21.1289 10.748C21.3941 10.748 21.6485 10.8534 21.836 11.0409C22.0235 11.2285 22.1289 11.4828 22.1289 11.748V13.748C22.1289 14.0133 22.0235 14.2676 21.836 14.4552C21.6485 14.6427 21.3941 14.748 21.1289 14.748Z" fill="black"/>
<path d="M21.1289 14.498C20.93 14.498 20.7392 14.419 20.5986 14.2784C20.4579 14.1377 20.3789 13.947 20.3789 13.748V11.748C20.3789 11.5491 20.4579 11.3584 20.5986 11.2177C20.7392 11.0771 20.93 10.998 21.1289 10.998C21.3278 10.998 21.5186 11.0771 21.6592 11.2177C21.7999 11.3584 21.8789 11.5491 21.8789 11.748V13.748C21.8789 13.947 21.7999 14.1377 21.6592 14.2784C21.5186 14.419 21.3278 14.498 21.1289 14.498Z" fill="black"/>
</svg>
