<svg width="30" height="22" viewBox="0 0 30 22" fill="none" xmlns="http://www.w3.org/2000/svg">
<g clip-path="url(#clip0_1_1579)">
<path d="M0 11.5416C0.117826 11.7944 0.256303 12.037 0.414021 12.2669C0.545046 12.4201 0.708057 12.5427 0.891569 12.6261C1.07508 12.7094 1.27462 12.7515 1.47615 12.7493C1.60192 12.7493 1.72946 12.7493 1.85699 12.7493C10.6545 12.7493 19.452 12.7493 28.2496 12.7493C28.5028 12.7552 28.7555 12.7228 28.999 12.6532C29.3166 12.5462 29.5882 12.3342 29.7692 12.0521C29.9502 11.77 30.0297 11.4346 29.9948 11.1012C29.9618 10.7681 29.8178 10.4558 29.5858 10.2145C29.3538 9.97325 29.0475 9.81712 28.716 9.77126C28.5514 9.75116 28.3857 9.7424 28.2199 9.74504C19.4422 9.74504 10.6638 9.74155 1.88494 9.73456C0.952083 9.73456 0.298725 10.0369 0 10.9579V11.5416Z" fill="black"/>
<path d="M0 2.51494C0.190415 3.12313 0.54329 3.56354 1.19664 3.7086C1.33075 3.73425 1.46717 3.74597 1.60369 3.74355H20.9072C21.7266 3.74355 22.3362 3.25421 22.4795 2.49397C22.539 2.15413 22.4781 1.80416 22.3071 1.50453C22.1361 1.20489 21.8659 0.974408 21.5431 0.852908C21.3506 0.785077 21.148 0.750792 20.9439 0.751543C14.4803 0.751543 8.01666 0.751543 1.55302 0.751543C1.22389 0.735773 0.898916 0.830362 0.629615 1.02031C0.360314 1.21027 0.162097 1.48471 0.0663841 1.80014C0.0483316 1.84268 0.0267097 1.8836 0.00174863 1.92248L0 2.51494Z" fill="black"/>
<path d="M0 20.5684C0.0745665 20.7452 0.16094 20.9169 0.258542 21.0822C0.393259 21.2932 0.580544 21.4656 0.801983 21.5823C1.02342 21.6991 1.2714 21.7562 1.52157 21.748H5.47487C8.62633 21.748 11.7784 21.748 14.931 21.748C15.752 21.748 16.3635 21.2395 16.477 20.481C16.5111 20.2707 16.4996 20.0556 16.4434 19.8501C16.3873 19.6446 16.2877 19.4536 16.1514 19.2899C16.0151 19.1263 15.8453 18.9938 15.6535 18.9014C15.4616 18.8089 15.2522 18.7588 15.0393 18.7543C14.5519 18.742 14.0628 18.7543 13.5754 18.7543H1.83602C0.765156 18.7543 0.405287 18.9955 0 19.9776V20.5684Z" fill="black"/>
</g>
<defs>
<clipPath id="clip0_1_1579">
<rect width="30" height="21" fill="white" transform="translate(0 0.748047)"/>
</clipPath>
</defs>
</svg>
