<svg width="74" height="29" viewBox="0 0 74 29" fill="none" xmlns="http://www.w3.org/2000/svg">
<g clip-path="url(#clip0_1_2159)">
<path d="M29.2427 0.746979C33.5022 0.787393 37.4423 1.20419 41.2757 2.38836C44.3272 3.33151 47.1499 4.75963 49.8454 6.45165C50.5115 6.86991 51.1659 7.30716 51.8174 7.74782C52.2333 8.03441 52.7195 8.20209 53.2236 8.23278C55.5715 8.39151 57.9204 8.53369 60.2644 8.73235C62.8041 8.9466 65.2625 9.49486 67.5579 10.6605C69.0098 11.3977 70.2578 12.3949 71.3494 13.5893C72.0219 14.3255 72.6641 15.089 73.3073 15.851C73.5615 16.1519 73.6204 16.521 73.5683 16.9071C73.3604 18.4507 73.1544 19.9942 72.9402 21.5367C72.9166 21.6679 72.9221 21.8027 72.9563 21.9315C72.9906 22.0603 73.0527 22.18 73.1384 22.2822C73.5113 22.7413 73.5104 23.0685 73.1812 23.5642C72.6339 24.3876 71.8261 24.7708 70.8874 24.9276C67.7598 25.4443 64.631 25.9577 61.5011 26.4677C59.6806 26.7598 57.8435 26.8932 56.0034 26.9799C53.8123 27.0826 51.6265 27.1786 49.4384 27.2828C49.2786 27.2906 49.1068 27.3076 48.9646 27.3728C47.8301 27.8924 46.6362 28.1519 45.3989 28.2751C43.7356 28.4392 42.0772 28.6461 40.4154 28.82C38.5335 29.0172 36.9349 28.3968 35.5896 27.0924C35.276 26.7886 34.9118 26.6371 34.4872 26.5865C31.8374 26.2705 29.1881 25.9477 26.5379 25.6336C24.2503 25.3629 21.9618 25.0965 19.6724 24.8346C17.7734 24.6145 15.8696 24.3915 13.9667 24.1797C12.9764 24.0696 11.9913 24.1719 11.0053 24.2732C9.38229 24.4397 7.75924 24.5911 6.1362 24.7274C4.56931 24.8575 3.42555 24.1315 2.55836 22.8864C1.99714 22.0855 1.62337 21.1686 1.46476 20.2035C1.20815 18.6513 0.980766 17.0917 0.977844 15.5126C0.977844 14.0149 1.31187 12.6028 2.12355 11.3252C2.9664 9.99541 4.18319 9.12091 5.58842 8.47867C5.99597 8.29121 6.43127 8.1612 6.8208 7.95329C7.66998 7.49852 8.50844 7.02183 9.33814 6.53151C12.6058 4.59992 16.04 3.05251 19.6904 1.99007C21.8596 1.35708 24.0726 1.00796 26.3231 0.880393C27.3831 0.819042 28.4456 0.78301 29.2427 0.746979ZM45.0094 25.9423C49.9491 26.3201 54.8358 25.7826 59.7551 25.4515C59.3967 24.9646 58.976 24.7012 58.3839 24.781C57.2032 24.9402 56.0385 24.8117 54.8781 24.5862C54.306 24.4743 54.2057 24.3822 54.1449 23.8072C54.1449 23.794 54.1254 23.7828 54.0796 23.7303H47.7497C47.7497 23.7054 47.7463 23.6816 47.7449 23.6553C47.8276 23.6431 47.9099 23.6265 47.9927 23.6202C50.0225 23.4605 52.0524 23.3016 54.0825 23.1435C54.4578 23.1173 54.8096 22.9514 55.0685 22.6785C55.5554 22.1916 56.0589 21.7203 56.5595 21.2465C57.3229 20.5239 58.2286 20.0487 59.2579 19.8832C60.3856 19.7035 61.526 19.5959 62.6639 19.4907C64.7242 19.3002 66.7854 19.1242 68.8477 18.9629C70.0328 18.8709 71.2189 18.6659 72.4114 18.8947C72.4245 18.8972 72.4401 18.884 72.4771 18.8689C72.5414 18.2802 72.6067 17.6804 72.6758 17.0469H69.4724C69.4724 17.0357 69.4724 17.0245 69.4724 17.0138L72.8175 16.6043C72.6714 16.2362 72.4567 15.9913 72.1032 15.8802C71.9817 15.8347 71.8643 15.779 71.7521 15.7137C71.1732 15.4167 70.5743 15.2487 69.9077 15.2784C67.1922 15.3982 64.4762 15.4946 61.7602 15.5998C60.6481 15.6426 59.5549 15.555 58.5066 15.1426C58.4532 15.1246 58.398 15.1122 58.342 15.1056C58.5621 15.3466 58.7934 15.6066 59.032 15.8598C59.1756 16.0127 59.161 16.1198 58.9546 16.1612C58.7028 16.2099 58.4414 16.2688 58.1887 16.2532C57.0473 16.1826 55.9085 16.0623 54.7662 16.0098C53.2181 15.9462 51.7137 15.478 50.4029 14.6518C49.757 14.2476 49.112 13.8419 48.4679 13.4345C48.2294 13.2762 47.9381 13.2184 47.6572 13.2738C46.9303 13.4009 46.2004 13.5104 45.471 13.6234C45.1939 13.6662 44.9154 13.7003 44.6379 13.7383C44.7912 13.6262 44.9648 13.545 45.1491 13.4992C46.457 13.1837 47.7687 12.8833 49.0751 12.5624C50.4005 12.2321 51.7943 12.3056 53.0775 12.7737C54.0075 13.1048 54.9083 13.5182 55.8203 13.8985C56.0579 13.9959 56.2897 14.1103 56.5244 14.2165C56.369 14.0591 56.1879 13.9295 55.9888 13.8333C53.9925 12.8828 52.0029 11.9051 49.9223 11.1382C47.3748 10.1999 44.7635 9.52456 42.0538 9.31665C39.5467 9.12432 37.0342 9.00259 34.5232 8.86187C33.6297 8.81318 32.7533 8.74258 31.9139 8.36668C29.9253 7.47612 28.5474 5.98081 27.5662 4.08185C27.4212 3.81059 27.3085 3.52331 27.2303 3.22585C27.0963 2.67564 27.3452 2.20334 27.8632 1.97157C28.0325 1.89357 28.2118 1.83965 28.3959 1.81137C28.8536 1.7471 29.3138 1.70182 29.7739 1.65848C30.1556 1.62196 30.5388 1.59859 30.921 1.56937C23.074 0.990435 16.0235 3.34369 9.43407 7.40503L12.3195 7.19517C12.2786 6.78421 12.3896 6.42439 12.6983 6.17849C13.1088 5.85129 13.5217 5.50607 13.9848 5.26894C16.0926 4.18799 18.3144 3.39822 20.6024 2.79494C21.8557 2.46481 23.0418 2.59725 24.19 3.26091C25.2875 3.8939 26.2214 4.70266 27.0808 5.61806C29.3498 8.03461 30.9405 10.8144 31.6485 14.0728C31.6972 14.3002 31.7425 14.5281 31.7921 14.7691C32.4967 14.7691 33.1784 14.7491 33.8576 14.7759C34.2958 14.7934 34.5851 14.6357 34.8315 14.2754C36.7504 11.4708 40.4568 10.9313 43.0223 13.1462C44.8059 14.6854 45.8152 16.7007 46.1829 19.0237C46.4706 20.8419 46.2067 22.6147 45.6317 24.3462C45.4559 24.875 45.228 25.3848 45.0094 25.9423ZM30.905 14.7487C30.905 14.6245 30.9191 14.533 30.9025 14.4482C30.8008 13.9404 30.7224 13.4257 30.5797 12.9286C30.2481 11.7751 29.6677 10.7321 29.1 9.68281C28.9082 9.32785 28.6545 9.18275 28.2625 9.1959C26.9478 9.24751 25.6361 9.2889 24.3224 9.3298C22.0534 9.39942 19.7941 9.30496 17.5728 8.80052C16.9651 8.66224 16.3648 8.48744 15.7659 8.31361C15.1957 8.14806 14.7025 8.25518 14.2949 8.68366C12.8921 10.1551 12.3648 11.8189 13.1935 13.7515C13.7291 15.0023 14.1639 16.2961 14.6669 17.5616C14.8143 17.9469 15.0089 18.3124 15.2463 18.6498C15.8701 19.5082 16.7821 19.8948 17.7934 20.0687C20.5586 20.5439 23.3233 21.023 26.0933 21.47C27.3009 21.6648 28.5196 21.7972 29.7359 21.9321C30.3129 21.9959 30.5851 21.7641 30.664 21.1866C30.7443 20.6023 30.8349 20.0117 30.85 19.422C30.886 18.0519 30.8797 16.6802 30.8894 15.3096C30.8852 15.2568 30.8772 15.2044 30.8655 15.1528L27.2974 14.8314L27.3038 14.7491L30.905 14.7487ZM1.85916 14.4078C2.25989 13.8722 2.61485 13.3829 2.98636 12.9057C3.3272 12.4675 3.72793 12.0809 4.26889 11.8958C5.25927 11.555 6.17613 11.7522 7.01362 12.3423C7.74399 12.8555 8.24746 13.5669 8.60972 14.364C9.65853 16.6681 9.73449 19.0301 8.95056 21.4281C8.90625 21.5625 8.8595 21.6954 8.80935 21.843C8.90673 21.8527 8.9715 21.8595 9.03577 21.8654C10.2399 21.9686 11.4494 22.028 12.6467 22.1833C15.8311 22.5957 19.0136 23.0233 22.1902 23.4936C25.8718 24.038 29.5455 24.6354 33.2232 25.2071C33.5703 25.2611 33.9204 25.2957 34.3158 25.3453C33.5582 23.7561 33.1292 22.138 33.0985 20.4246C33.0679 18.7112 33.433 17.0815 34.0758 15.4693L31.7507 15.257C31.7449 15.3364 31.741 15.3758 31.7396 15.4152C31.6685 17.0444 31.6071 18.6737 31.5214 20.3019C31.5029 20.7552 31.4376 21.2054 31.3267 21.6453C31.1645 22.2554 30.7331 22.625 30.0967 22.7004C29.7998 22.742 29.4987 22.744 29.2013 22.7063C27.0447 22.3786 24.8892 22.045 22.737 21.6906C20.9354 21.394 19.1387 21.0834 17.3459 20.7469C16.2669 20.5439 15.2975 20.094 14.6387 19.1688C14.4181 18.8597 14.162 18.7671 13.8177 18.7686C12.9252 18.772 12.0327 18.7662 11.1397 18.7642H10.8281L10.8237 18.7038L14.1255 18.3382C14.105 18.2622 14.0967 18.2155 14.0802 18.1716C13.6079 16.9466 13.1185 15.7273 12.6681 14.494C12.43 13.8415 12.188 13.1764 12.0741 12.4977C11.8409 11.1041 12.3512 9.90094 13.2042 8.82146C13.3829 8.59504 13.5631 8.3696 13.7588 8.12371C13.6381 8.09255 13.5543 8.06674 13.4667 8.05068C13.3634 8.02973 13.2588 8.01574 13.1536 8.0088C11.0725 7.91434 9.02019 8.05749 7.02579 8.71872C5.68337 9.16327 4.45294 9.79285 3.46792 10.8348C2.53597 11.8194 2.00036 12.9894 1.85916 14.4088V14.4078ZM41.172 8.41343C41.172 8.43095 41.1764 8.44848 41.1784 8.46601C41.3152 8.47478 41.4525 8.48013 41.5893 8.49328C44.8487 8.80101 47.9898 9.6088 51.0379 10.791C53.3634 11.6928 55.5856 12.8146 57.7777 13.9973C58.9524 14.6393 60.2821 14.9427 61.619 14.8738C64.0993 14.7599 66.5793 14.6425 69.059 14.5218C69.1257 14.5183 69.1919 14.5067 69.2586 14.4994C68.7196 14.1415 68.1762 13.8206 67.6211 13.5216C62.8694 10.96 57.7777 9.49437 52.4416 8.82389C49.3439 8.43436 46.2325 8.31848 43.1134 8.36814C42.4662 8.37837 41.8191 8.39784 41.172 8.41343ZM34.2545 20.5556C34.2793 20.8224 34.3031 21.2523 34.3606 21.6755C34.5977 23.385 35.2765 24.8891 36.558 26.065C37.8396 27.2409 39.3208 27.5642 40.9505 26.9161C42.0913 26.4623 42.9011 25.5932 43.462 24.5346C44.9656 21.6969 44.8541 18.8767 43.1859 16.1432C42.5174 15.0481 41.5723 14.2238 40.2971 13.8975C38.568 13.4549 37.1438 14.0363 36.0122 15.351C34.7696 16.7942 34.2954 18.5217 34.2545 20.5556ZM69.5712 13.825C69.2051 13.3619 68.8409 12.9821 68.5735 12.5429C68.2074 11.9397 67.7127 11.5302 67.0836 11.2361C65.2445 10.3757 63.3051 9.87514 61.3025 9.59809C60.686 9.51288 60.0667 9.44958 59.4483 9.37605L59.4322 9.43789C62.9935 10.4312 66.3673 11.8583 69.5712 13.825ZM2.00913 18.1751C2.05782 18.55 2.10651 19.2297 2.22921 19.8973C2.42397 20.9646 2.86219 21.9228 3.66511 22.679C4.48605 23.4517 5.53924 23.5097 6.42883 22.8178C7.1592 22.2515 7.58184 21.469 7.87204 20.6121C8.24599 19.5077 8.28787 18.3679 8.15202 17.2227C8.00595 15.9835 7.55312 14.8699 6.6757 13.9603C5.68922 12.9378 4.41447 12.9305 3.45818 13.9798C2.46049 15.0739 2.00036 16.3886 2.00913 18.1751ZM27.5803 7.14843C27.5287 7.04666 27.5107 6.98093 27.4693 6.93662C27.4099 6.88157 27.3459 6.83172 27.278 6.78762C26.1449 5.9253 24.8799 5.61173 23.4762 5.87028C23.1597 5.92871 23.0228 6.05725 23.016 6.3085C23.0087 6.55196 23.1524 6.72286 23.4357 6.79931C23.4907 6.813 23.5467 6.82212 23.6032 6.82658C24.524 6.90594 25.4438 6.98677 26.3645 7.06322C26.7497 7.09681 27.1358 7.11824 27.5803 7.14843ZM72.6198 22.9298C72.3515 22.6103 72.0516 22.4988 71.6494 22.6663C71.2243 22.8436 70.7793 22.9712 70.344 23.1226C70.2935 23.1446 70.2447 23.1701 70.1979 23.199C71.3636 23.721 71.9975 23.648 72.6183 22.9298H72.6198Z" fill="#242E69"/>
<path d="M47.0673 17.1614L63.8025 17.4594C63.3793 17.6907 58.1173 18.012 55.4466 17.9692C53.0777 17.9312 47.7626 17.4263 47.0673 17.1614Z" fill="#242E69"/>
<path d="M61.2039 12.8561C61.7692 12.5294 62.5151 12.859 63.0673 13.6478C62.7883 13.8777 62.5443 13.921 62.2838 13.7287C61.9148 13.4555 61.5686 13.1536 61.2039 12.8561Z" fill="#242E69"/>
<path d="M34.6047 20.4987C34.5926 19.2327 34.7995 18.0154 35.3979 16.8809C35.8283 16.0658 36.3927 15.3579 37.1562 14.8359C38.6403 13.8163 40.4638 13.9522 41.8476 15.1587C43.0678 16.2231 43.7636 17.5733 44.0182 19.1558C44.3079 20.9515 44.1156 22.6849 43.2202 24.2947C42.7079 25.2135 41.9888 25.9429 41.0427 26.4244C39.6389 27.1378 38.0321 26.8943 36.7798 25.7637C35.4227 24.5401 34.7401 22.9883 34.6072 21.1799C34.5906 20.954 34.6047 20.7261 34.6047 20.4987Z" fill="#242E69"/>
<path d="M2.21771 18.1494C2.23232 16.6789 2.65009 15.3559 3.64534 14.2429C4.44729 13.346 5.58423 13.3046 6.45532 14.1391C7.25093 14.9016 7.64485 15.8628 7.84253 16.9218C8.12007 18.4074 7.97205 19.8458 7.32787 21.2193C7.08426 21.7354 6.72524 22.1886 6.27857 22.5437C5.59007 23.0979 4.76914 23.1168 4.05483 22.5978C3.30207 22.0515 2.84583 21.2977 2.57316 20.4257C2.33955 19.6894 2.21968 18.9218 2.21771 18.1494Z" fill="#242E69"/>
</g>
<defs>
<clipPath id="clip0_1_2159">
<rect width="72.606" height="28.108" fill="white" transform="translate(0.97998 0.748047)"/>
</clipPath>
</defs>
</svg>
