<svg width="23" height="18" viewBox="0 0 23 18" fill="none" xmlns="http://www.w3.org/2000/svg">
<g clip-path="url(#clip0_1_1648)">
<path d="M1.54961 8.35482C1.28804 8.35482 1.0822 8.41145 0.936584 8.34134C0.718162 8.23617 0.435021 8.07887 0.367607 7.87932C0.19143 7.35888 0.0997468 6.80698 0.00986097 6.26138C-0.0566546 5.85959 0.206711 5.58274 0.641759 5.57195C1.2404 5.55757 1.84084 5.54678 2.43768 5.57645C2.75138 5.59173 2.87902 5.47218 2.98508 5.19533C3.16755 4.72163 3.39856 4.26771 3.61069 3.80569C4.17967 2.56797 5.15133 1.81472 6.44389 1.44529C9.63933 0.531152 12.8447 0.550028 16.0716 1.29159C17.9124 1.71495 19.152 2.80616 19.7389 4.56253C20.0221 5.41106 20.4553 5.72386 21.3119 5.57734C21.6463 5.51982 21.9995 5.55847 22.3438 5.57105C22.8382 5.58903 23.0719 5.88925 22.9793 6.37823C22.9011 6.78901 22.8112 7.19799 22.7258 7.60787C22.5964 8.23078 22.4562 8.34673 21.8198 8.35572C21.7065 8.35751 21.5924 8.3665 21.5663 8.3683C21.8153 9.01728 22.147 9.64378 22.2917 10.3116C22.5685 11.5889 22.1982 12.7323 21.3506 13.73C21.222 13.8819 21.1402 14.1165 21.1303 14.3178C21.1007 14.885 21.125 15.4558 21.1187 16.0239C21.1115 16.6836 20.7897 17.0216 20.129 17.0387C19.5304 17.054 18.9308 17.0504 18.3322 17.0405C17.6176 17.0288 17.2967 16.7025 17.2796 15.9897C17.2742 15.7668 17.2796 15.5448 17.2796 15.2895H5.72211C5.72211 15.5673 5.73469 15.8333 5.71941 16.0967C5.68615 16.6854 5.37335 17.0144 4.7873 17.0342C4.12933 17.0567 3.46957 17.0576 2.8116 17.0342C2.20577 17.0126 1.89657 16.6657 1.88398 16.0517C1.87859 15.7974 1.8705 15.5421 1.88488 15.2886C1.92982 14.5066 1.7905 13.8486 1.29433 13.1484C0.319967 11.7714 0.400865 10.2532 1.25748 8.79436C1.33118 8.66852 1.41837 8.54987 1.54961 8.35392V8.35482ZM4.36933 6.46092H18.6297C18.4077 5.93689 18.1821 5.46678 18.0068 4.9787C17.623 3.90996 16.8545 3.31851 15.7767 3.04526C12.9031 2.31808 10.0348 2.32078 7.16568 3.06144C6.14367 3.3248 5.39852 3.89288 5.02549 4.91309C4.84123 5.41555 4.60842 5.90093 4.36933 6.46092ZM4.96797 12.9183C5.90727 12.93 6.71894 12.1273 6.72164 11.1844C6.72434 10.2568 5.95491 9.4703 5.0201 9.44513C4.08079 9.41997 3.26373 10.2065 3.24485 11.1539C3.22598 12.0923 4.02147 12.9066 4.96707 12.9183H4.96797ZM19.7731 11.1673C19.7677 10.2119 18.9713 9.42895 18.0212 9.44334C17.0864 9.45862 16.3206 10.2334 16.3143 11.17C16.308 12.1219 17.099 12.9201 18.0464 12.9174C19.0001 12.9147 19.7785 12.1255 19.7731 11.1664V11.1673Z" fill="black"/>
</g>
<defs>
<clipPath id="clip0_1_1648">
<rect width="23" height="16.3053" fill="white" transform="translate(0 0.747986)"/>
</clipPath>
</defs>
</svg>
