<svg width="19" height="20" viewBox="0 0 19 20" fill="none" xmlns="http://www.w3.org/2000/svg">
<g clip-path="url(#clip0_1_1609)">
<path d="M0 10.1829C0.0122035 4.9167 4.15244 0.766701 9.17051 0.747989C13.9461 0.730091 17.9904 4.45215 18.3719 9.2172C18.4224 9.84853 18.3256 9.95348 17.6861 9.95511C17.4282 9.95511 17.1703 9.94534 16.9132 9.95755C16.5235 9.97545 16.3665 9.80704 16.3307 9.41164C16.0419 6.2241 13.8884 3.72401 10.8163 2.98529C6.11069 1.85362 1.59215 5.80755 2.08842 10.623C2.4472 14.1067 5.08641 16.7232 8.60101 17.0803C9.14203 17.1356 9.20142 17.1975 9.20549 17.7238C9.20793 17.9948 9.20874 18.2665 9.20549 18.5374C9.19898 19.0565 9.09322 19.1655 8.5701 19.1248C6.79896 18.9881 5.17834 18.4186 3.75786 17.3455C1.30333 15.4922 0.0846108 13.0003 0 10.1829Z" fill="black"/>
<path d="M9.20795 4.69947C11.8569 4.70272 14.1365 6.71955 14.4107 9.30425C14.4652 9.81679 14.3537 9.94859 13.8526 9.95429C13.5548 9.95836 13.2554 9.94127 12.9585 9.95836C12.5859 9.97951 12.4289 9.80215 12.363 9.44988C12.101 8.04241 11.2638 7.14993 9.87507 6.81799C8.13567 6.40145 6.40847 7.55671 6.04643 9.34655C5.70148 11.0542 6.8779 12.7912 8.59289 13.106C9.18517 13.2151 9.20388 13.237 9.20551 13.8439C9.20551 14.1149 9.21039 14.3866 9.20388 14.6575C9.1933 15.0871 9.05337 15.2067 8.62055 15.1692C6.47356 14.9846 4.55435 13.272 4.07354 11.112C3.34133 7.82031 5.84223 4.69703 9.20713 4.7011L9.20795 4.69947Z" fill="black"/>
<path d="M18.7152 13.8415C18.6746 13.809 18.6176 13.7968 18.5672 13.7772C15.7661 12.6936 12.965 11.6099 10.163 10.5262C10.1378 10.5165 10.1118 10.5067 10.0833 10.4961C9.90351 10.431 9.70581 10.5815 9.74405 10.7687C9.74649 10.7801 9.74975 10.7914 9.75381 10.8028C10.8594 13.6975 11.9748 16.5881 13.0943 19.4779C13.1342 19.5804 13.2359 19.6585 13.3091 19.748C13.3896 19.6512 13.5035 19.5674 13.5442 19.4559C13.8867 18.5154 14.2724 17.5847 14.5311 16.6206C14.7328 15.8673 15.1388 15.4865 15.88 15.2815C16.8424 15.0155 17.7731 14.6339 18.7144 14.2922C18.8177 14.2548 18.8999 14.1588 18.9918 14.0896C18.8999 14.0058 18.8112 13.9188 18.7152 13.8415Z" fill="black"/>
<path d="M10.5462 10.1715C10.1525 10.0666 9.788 9.78425 9.41945 10.1373C9.00128 10.5384 9.35762 10.9403 9.43979 11.3373C8.94189 11.509 8.39761 11.3097 8.06812 10.846C7.7069 10.3375 7.7248 9.67035 8.11124 9.18303C8.49768 8.69651 9.14447 8.52567 9.71884 8.75753C10.2908 8.98858 10.6056 9.51252 10.5454 10.1715H10.5462Z" fill="black"/>
</g>
<defs>
<clipPath id="clip0_1_1609">
<rect width="18.9919" height="19" fill="white" transform="translate(0 0.747986)"/>
</clipPath>
</defs>
</svg>
