<svg width="19" height="20" viewBox="0 0 19 20" fill="none" xmlns="http://www.w3.org/2000/svg">
<g clip-path="url(#clip0_1_1642)">
<path d="M18.9699 5.10076C18.9699 5.92992 18.9803 6.75908 18.9672 7.58825C18.9515 8.62044 18.3202 9.25181 17.2801 9.25967C15.5995 9.27146 13.9189 9.27277 12.2396 9.25967C11.2402 9.25181 10.5957 8.6152 10.5866 7.62361C10.5721 5.92206 10.5721 4.2192 10.5866 2.51765C10.5957 1.52475 11.2389 0.889452 12.2383 0.881593C13.9189 0.868494 15.5982 0.869804 17.2788 0.881593C18.3162 0.888142 18.9502 1.52082 18.9659 2.55171C18.979 3.40314 18.9686 4.25326 18.9686 5.10469L18.9699 5.10076Z" fill="black"/>
<path d="M4.27418 19.7414C3.44502 19.7414 2.61586 19.7506 1.7867 19.7388C0.754501 19.7244 0.115273 19.0917 0.107414 18.0608C0.0956245 16.3802 0.0956245 14.6997 0.107414 13.0204C0.115273 11.9921 0.757121 11.3647 1.80111 11.3581C3.45943 11.3476 5.11775 11.3489 6.77608 11.3581C7.85281 11.3647 8.48156 11.9921 8.48811 13.0688C8.49859 14.7272 8.49859 16.3855 8.48811 18.0438C8.48156 19.1127 7.84495 19.7296 6.76167 19.7414C5.93251 19.7493 5.10335 19.7427 4.27418 19.7427V19.7414Z" fill="black"/>
<path d="M10.5839 15.4882C10.5839 14.6591 10.5721 13.8299 10.5865 13.0007C10.6036 12.0052 11.2362 11.3673 12.2344 11.3594C13.9359 11.3463 15.6388 11.3437 17.3404 11.3594C18.328 11.3686 18.9594 12.017 18.9659 13.0217C18.979 14.7023 18.979 16.3829 18.9659 18.0622C18.9581 19.0957 18.3215 19.731 17.2853 19.7388C15.6047 19.7506 13.9241 19.7519 12.2449 19.7388C11.2179 19.731 10.597 19.0865 10.5839 18.0425C10.5734 17.1911 10.5813 16.341 10.5826 15.4895L10.5839 15.4882Z" fill="black"/>
<path d="M4.24397 0.747986C4.671 0.987696 5.0954 1.1344 5.39668 1.41341C6.27431 2.22817 7.11264 3.08746 7.94835 3.94675C8.67534 4.69469 8.66879 5.55791 7.93001 6.31765C7.11002 7.16122 6.27824 7.99432 5.43336 8.81431C4.67755 9.54785 3.81695 9.54916 3.06114 8.81562C2.20054 7.98122 1.35173 7.13503 0.519946 6.27181C-0.182156 5.54219 -0.171677 4.68291 0.539595 3.94937C1.374 3.08877 2.21233 2.23079 3.08996 1.41472C3.39123 1.13571 3.81564 0.989006 4.24397 0.747986Z" fill="black"/>
</g>
<defs>
<clipPath id="clip0_1_1642">
<rect width="18.9764" height="19" fill="white" transform="translate(0 0.747986)"/>
</clipPath>
</defs>
</svg>
