<svg width="22" height="20" viewBox="0 0 22 20" fill="none" xmlns="http://www.w3.org/2000/svg">
<g clip-path="url(#clip0_1_1594)">
<path d="M10.7973 19.708C9.48005 19.708 8.16279 19.7114 6.84468 19.7072C5.73563 19.7029 5.15348 19.148 5.15348 18.0432C5.15348 16.6996 5.0753 15.3398 5.24442 14.0149C5.57161 11.4441 7.57979 9.70281 10.2067 9.58723C10.9953 9.55239 11.8044 9.55749 12.5777 9.69346C14.6582 10.058 16.4607 12.0849 16.5865 14.201C16.6646 15.5141 16.6476 16.8347 16.6221 18.1503C16.6018 19.1854 16.1437 19.6299 15.0882 19.6783C13.9995 19.7276 12.9083 19.7284 11.818 19.7471C11.478 19.7531 11.1381 19.748 10.7982 19.748V19.7097L10.7973 19.708Z" fill="black"/>
<path d="M10.8746 8.14333C8.82479 8.13568 7.18119 6.47934 7.19479 4.43461C7.20838 2.39158 8.87918 0.73438 10.9095 0.747977C12.9491 0.761575 14.6003 2.43322 14.5893 4.4703C14.5774 6.52183 12.9295 8.15098 10.8746 8.14333Z" fill="black"/>
<path d="M3.85491 18.3177C2.88014 18.3177 1.91981 18.3576 0.965436 18.3024C0.435983 18.2718 0.0195582 17.7186 0.0144591 17.156C0.00171146 15.5285 -0.0144356 13.901 0.0204081 12.2744C0.0459034 11.0762 0.94334 9.9977 2.13992 9.70451C3.01526 9.49035 3.9127 9.50649 4.78549 9.7487C5.10079 9.83623 5.38633 10.0342 5.66678 10.1728C5.65148 10.2671 5.65658 10.3019 5.64214 10.3181C4.31128 11.6812 3.88126 13.3741 3.85746 15.2115C3.84386 16.2296 3.85491 17.2486 3.85491 18.3194V18.3177Z" fill="black"/>
<path d="M17.9275 18.3041C17.9275 17.2409 17.9385 16.222 17.925 15.2022C17.9012 13.3503 17.4907 11.6354 15.9984 10.1974C16.4819 9.996 16.8754 9.7351 17.2961 9.67986C17.9632 9.59233 18.6567 9.56853 19.3238 9.64757C20.7439 9.81584 21.7629 11.0218 21.7731 12.4589C21.7833 13.9597 21.779 15.4614 21.7739 16.963C21.7714 17.801 21.2657 18.3262 20.4388 18.3415C19.6603 18.3559 18.881 18.3457 18.1017 18.344C18.049 18.344 17.9955 18.3202 17.9258 18.3041H17.9275Z" fill="black"/>
<path d="M3.39431 8.14164C2.1051 8.13484 1.07848 7.10568 1.07593 5.81731C1.07338 4.5213 2.13994 3.45644 3.42661 3.47004C4.70732 3.48364 5.73904 4.5247 5.74328 5.80796C5.74753 7.11248 4.70392 8.14929 3.39346 8.14249L3.39431 8.14164Z" fill="black"/>
<path d="M18.3737 8.14164C17.0819 8.14164 16.0527 7.12267 16.0408 5.83261C16.0281 4.53744 17.0853 3.46833 18.3762 3.47003C19.6705 3.47088 20.7218 4.53829 20.7082 5.83515C20.6946 7.12692 19.6671 8.14249 18.3737 8.14249V8.14164Z" fill="black"/>
</g>
<defs>
<clipPath id="clip0_1_1594">
<rect width="21.7807" height="19" fill="white" transform="translate(0 0.747986)"/>
</clipPath>
</defs>
</svg>
