<svg width="21" height="23" viewBox="0 0 21 23" fill="none" xmlns="http://www.w3.org/2000/svg">
<g clip-path="url(#clip0_1_1602)">
<path d="M20.6905 15.9539C20.6879 19.5108 17.8139 22.3691 14.2484 22.3587C10.7236 22.3483 7.85569 19.4527 7.87565 15.9244C7.89561 12.3866 10.7704 9.52913 14.3013 9.53607C17.8339 9.54301 20.6931 12.4144 20.6905 15.9539ZM13.9099 16.4641C13.3928 15.9357 12.9268 15.4419 12.4409 14.9699C12.0972 14.6358 11.6174 14.6401 11.3145 14.9473C11.0013 15.2649 11.0004 15.7109 11.3475 16.0676C12.0018 16.741 12.6665 17.4039 13.3381 18.0599C13.6835 18.3975 14.1017 18.4383 14.4245 18.125C15.5014 17.0785 16.5731 16.0242 17.6031 14.9326C17.7636 14.7625 17.7948 14.3451 17.7081 14.1065C17.636 13.906 17.3115 13.696 17.0859 13.6804C16.8568 13.6648 16.5652 13.834 16.3821 14.0084C15.5587 14.7946 14.7638 15.6103 13.9091 16.465L13.9099 16.4641Z" fill="black"/>
<path d="M0.00170007 11.0755C0.00170007 8.22674 -3.5418e-05 5.37707 0.00256782 2.52826C0.00343556 0.977603 0.840809 0.137627 2.38366 0.136759C6.70936 0.135891 11.0342 0.135891 15.3599 0.136759C16.8897 0.136759 17.7297 0.970662 17.7306 2.48835C17.7315 4.03554 17.7341 5.58359 17.7245 7.13078C17.7219 7.64188 17.4182 8.0341 16.9609 8.17294C16.5036 8.31178 15.9847 8.15038 15.7461 7.7382C15.6298 7.53688 15.563 7.27916 15.5586 7.04487C15.5395 5.96019 15.5517 4.87551 15.5499 3.79083C15.5482 2.74693 15.1109 2.30438 14.0835 2.30438C10.5969 2.30438 7.11026 2.30438 3.62453 2.30438C2.63183 2.30438 2.18928 2.74173 2.18928 3.72662C2.18842 8.58599 2.18842 13.4462 2.18928 18.3056C2.18928 19.4276 2.60667 19.838 3.74341 19.8406C4.68405 19.8432 5.62382 19.838 6.56445 19.8424C7.26472 19.8458 7.73764 20.2719 7.74719 20.8958C7.7576 21.5423 7.28468 21.9944 6.56532 21.9987C5.11879 22.0057 3.67226 22.0109 2.22573 21.9978C0.881593 21.9866 0.00864203 21.1058 0.0043033 19.7539C-0.0035064 16.8617 0.00170007 13.9686 0.00170007 11.0755Z" fill="black"/>
<path d="M8.08045 6.97795C7.25609 6.97795 6.4326 6.98229 5.60824 6.97622C4.8776 6.97101 4.38733 6.54061 4.37865 5.91236C4.36997 5.26937 4.87153 4.83029 5.62647 4.82855C7.27431 4.82595 8.92216 4.82595 10.5709 4.82855C11.3275 4.82942 11.8256 5.26589 11.8187 5.90976C11.8117 6.55363 11.3189 6.97275 10.5518 6.97622C9.72743 6.97969 8.90394 6.97622 8.07958 6.97622L8.08045 6.97795Z" fill="black"/>
<path d="M7.01485 11.144C6.52371 11.144 6.03257 11.1527 5.54229 11.1423C4.85417 11.1275 4.37344 10.6719 4.37951 10.0593C4.38559 9.44322 4.86718 9.00154 5.55878 8.99633C6.5402 8.99026 7.52248 8.99026 8.5039 8.99633C9.20677 9.00067 9.66928 9.42413 9.67622 10.0532C9.68317 10.6841 9.22673 11.1258 8.53167 11.1414C8.02664 11.1527 7.52075 11.144 7.01572 11.144H7.01485Z" fill="black"/>
<path d="M5.91628 15.3274C5.68633 15.3083 5.45204 15.3135 5.22903 15.2658C4.69884 15.1512 4.35261 14.6748 4.39599 14.1559C4.44025 13.6249 4.84028 13.2075 5.37655 13.1676C5.70716 13.1433 6.04124 13.152 6.37358 13.1615C7.00096 13.1806 7.46 13.6309 7.46781 14.221C7.47562 14.7842 7.03828 15.2484 6.4378 15.304C6.26598 15.3196 6.09157 15.3066 5.91802 15.3066L5.91628 15.3283V15.3274Z" fill="black"/>
</g>
<defs>
<clipPath id="clip0_1_1602">
<rect width="20.6905" height="22.2221" fill="white" transform="translate(0 0.136658)"/>
</clipPath>
</defs>
</svg>
