<svg width="19" height="20" viewBox="0 0 19 20" fill="none" xmlns="http://www.w3.org/2000/svg">
<g clip-path="url(#clip0_1_1615)">
<path d="M10.3916 0.747986C10.3916 1.66186 10.3902 2.51491 10.3916 3.36796C10.3931 3.89462 10.5808 4.08452 11.103 4.08675C11.9657 4.08897 12.8284 4.08675 13.7104 4.08675V6.60806C12.7379 6.64812 12.1163 7.12805 11.8982 8.10943C11.7869 8.08347 11.6942 8.06047 11.6008 8.04044C10.8649 7.88318 10.178 8.16877 9.7819 8.81115C9.55492 9.17908 9.34574 9.55739 9.12914 9.93199C8.5053 11.012 8.55203 11.5439 9.36725 12.4822C8.80943 12.9963 8.5461 13.6186 8.8072 14.3701C8.90734 14.6579 9.08315 14.9205 9.23224 15.1897C9.39395 15.4813 9.56085 15.7698 9.73146 16.0561C10.1706 16.795 10.8567 17.0798 11.689 16.8751C11.7476 16.861 11.8077 16.8528 11.893 16.8372C12.1126 17.7986 12.7179 18.2985 13.726 18.3319C13.726 18.639 13.7452 18.935 13.7208 19.2273C13.6948 19.5381 13.4982 19.7161 13.1859 19.7406C13.0012 19.7547 12.8151 19.745 12.6296 19.745C8.68555 19.745 4.7415 19.745 0.796702 19.745C0.166929 19.745 -0.00219727 19.5803 -0.00219727 18.9647C2.80798e-05 13.1535 2.80798e-05 7.34317 2.80798e-05 1.53353C2.80798e-05 0.912661 0.166929 0.747986 0.794476 0.747986C3.86026 0.747986 6.92679 0.747986 9.99331 0.747986H10.3916ZM6.87857 5.24022C5.48328 5.24022 4.08725 5.24022 2.69195 5.24096C2.55695 5.24096 2.4175 5.23799 2.28694 5.26766C2.011 5.32997 1.86116 5.52209 1.86413 5.79878C1.86709 6.07546 2.0199 6.26388 2.29658 6.32248C2.41601 6.3477 2.54211 6.34621 2.66525 6.34621C5.46919 6.3477 8.27238 6.3477 11.0763 6.34621C11.1995 6.34621 11.3256 6.34696 11.4442 6.32025C11.7202 6.25646 11.8693 6.06508 11.8663 5.78839C11.8641 5.51171 11.7113 5.32181 11.4339 5.2647C11.3026 5.23799 11.1638 5.24096 11.0288 5.24022C9.64542 5.23873 8.26199 5.23947 6.87931 5.23947L6.87857 5.24022ZM5.3824 8.57453C6.08635 8.57453 6.78956 8.57453 7.49351 8.57453C7.78948 8.57453 8.08693 8.58417 8.38142 8.5634C8.69519 8.54115 8.87545 8.34977 8.89993 8.03748C8.92292 7.7467 8.69965 7.51378 8.3792 7.47521C8.29389 7.46482 8.20636 7.46705 8.12031 7.46705C6.2933 7.46705 4.4663 7.4663 2.64003 7.46779C2.51764 7.46779 2.35519 7.43886 2.27952 7.50339C2.11633 7.64285 1.92273 7.81642 1.87822 8.0078C1.81739 8.26817 2.0021 8.47661 2.27581 8.54411C2.40488 8.57601 2.54508 8.57304 2.68009 8.57378C3.58135 8.57601 4.48262 8.57527 5.38314 8.57527L5.3824 8.57453ZM5.37943 16.3699C4.651 16.3699 3.92257 16.3699 3.19488 16.3699C2.92339 16.3699 2.65116 16.3603 2.38041 16.381C2.06663 16.4048 1.88638 16.5947 1.8619 16.907C1.83965 17.1977 2.06292 17.4307 2.38337 17.4692C2.46868 17.4796 2.55621 17.4774 2.64225 17.4774C4.46926 17.4774 6.29627 17.4781 8.12254 17.4767C8.24493 17.4767 8.40738 17.5056 8.48304 17.441C8.64624 17.3016 8.83984 17.128 8.88435 16.9366C8.94517 16.6763 8.76121 16.4678 8.4875 16.4003C8.35843 16.3684 8.21823 16.3714 8.08322 16.3707C7.18196 16.3684 6.28069 16.3692 5.38017 16.3692L5.37943 16.3699ZM4.82013 10.8006C5.57303 10.8006 6.3252 10.8036 7.07811 10.7991C7.54172 10.7962 7.79838 10.5855 7.78948 10.2324C7.78058 9.8949 7.52986 9.69536 7.08775 9.69387C5.58268 9.69017 4.07686 9.69017 2.57179 9.69387C2.10966 9.69462 1.85077 9.90825 1.86042 10.2606C1.86932 10.6011 2.11633 10.7962 2.56288 10.7991C3.31579 10.8043 4.06796 10.8006 4.82087 10.8006H4.82013ZM4.80529 13.026C5.57007 13.026 6.33559 13.0297 7.10036 13.0245C7.54098 13.0215 7.78874 12.8153 7.78948 12.4726C7.78948 12.1314 7.54098 11.9214 7.10185 11.92C5.58416 11.9155 4.06648 11.9155 2.54879 11.92C2.11188 11.9214 1.86042 12.1321 1.85968 12.4711C1.85968 12.8131 2.10817 13.0208 2.54731 13.0237C3.30022 13.0297 4.05238 13.0252 4.80529 13.0252V13.026ZM4.80752 15.252C5.57229 15.252 6.33781 15.2558 7.10259 15.2506C7.5395 15.2476 7.79022 15.0369 7.78948 14.6965C7.78874 14.353 7.54247 14.1475 7.09962 14.146C5.58194 14.1416 4.06425 14.1416 2.54657 14.146C2.10966 14.1475 1.85893 14.3589 1.85968 14.6994C1.86116 15.0384 2.11262 15.2469 2.54953 15.2498C3.30244 15.255 4.05461 15.2513 4.80752 15.2513V15.252Z" fill="black"/>
<path d="M12.0414 15.4612C11.9627 15.5028 11.8856 15.5406 11.8107 15.5821C11.0956 15.9834 10.9502 15.9419 10.5318 15.2179C10.3338 14.876 10.1313 14.5362 9.94063 14.1906C9.72848 13.8056 9.78189 13.4985 10.1706 13.3242C10.5719 13.1446 10.6157 12.8798 10.6275 12.4867C10.6409 12.0513 10.5489 11.7835 10.1328 11.5943C9.79525 11.4408 9.73071 11.1381 9.90874 10.811C10.1684 10.334 10.4406 9.863 10.7232 9.39939C10.902 9.10564 11.1816 9.03443 11.4924 9.18501C11.6801 9.27625 11.8589 9.38678 12.0384 9.48692C12.1652 9.40235 12.2691 9.30295 12.393 9.25771C12.8581 9.08561 13.0895 8.80744 13.0316 8.27039C12.9975 7.95291 13.2571 7.75115 13.5835 7.7415C14.1273 7.72518 14.6717 7.72518 15.2154 7.74076C15.5915 7.75115 15.8193 7.97739 15.7948 8.36312C15.7688 8.76665 15.8986 8.97731 16.268 9.18575C16.6545 9.4031 16.9297 9.47727 17.3125 9.20578C17.6188 8.98844 17.9148 9.10416 18.121 9.44538C18.3829 9.87858 18.6358 10.3177 18.8821 10.7598C19.0927 11.1366 19.0312 11.4385 18.6425 11.627C18.282 11.8013 18.1841 12.0157 18.1826 12.4199C18.1803 12.8806 18.2679 13.1662 18.71 13.3642C19.0245 13.5051 19.0809 13.8182 18.9132 14.1253C18.6536 14.6022 18.3829 15.074 18.0988 15.5369C17.9014 15.8581 17.5966 15.9419 17.2702 15.7201C16.9304 15.4894 16.6871 15.5102 16.3244 15.7238C15.9379 15.9515 15.7488 16.1644 15.7911 16.6258C15.8237 16.9752 15.573 17.1948 15.208 17.2052C14.6769 17.22 14.1443 17.22 13.6132 17.2052C13.2341 17.194 12.9856 16.9722 13.025 16.5917C13.0739 16.1259 12.8862 15.89 12.4812 15.7387C12.324 15.6801 12.1905 15.5577 12.0391 15.4605L12.0414 15.4612ZM14.421 14.0385C15.3007 14.034 15.9862 13.3338 15.9765 12.4511C15.9669 11.5847 15.2829 10.9082 14.4158 10.9059C13.5368 10.9037 12.8373 11.5988 12.8388 12.4748C12.8395 13.3494 13.542 14.0437 14.421 14.0385Z" fill="black"/>
<path d="M11.5228 0.82884C12.611 1.04247 13.4997 1.94448 13.6384 2.95627C13.5546 2.96295 13.4722 2.97482 13.3892 2.97482C12.7735 2.9763 12.1585 2.97556 11.5228 2.97556V0.82884Z" fill="black"/>
</g>
<defs>
<clipPath id="clip0_1_1615">
<rect width="19.0067" height="19" fill="white" transform="translate(0 0.747986)"/>
</clipPath>
</defs>
</svg>
